<svg width="513" height="513" viewBox="0 0 513 513" fill="none" xmlns="http://www.w3.org/2000/svg">
<path d="M352.298 269.38C348.126 269.368 343.993 270.184 340.138 271.781C336.284 273.377 332.784 275.722 329.842 278.68L320.057 288.467L310.273 278.683C307.324 275.734 303.823 273.394 299.97 271.798C296.117 270.202 291.987 269.38 287.816 269.38C283.645 269.38 279.515 270.201 275.662 271.797C271.809 273.393 268.308 275.732 265.359 278.682C262.409 281.631 260.07 285.132 258.474 288.985C256.877 292.838 256.056 296.968 256.056 301.138C256.056 305.309 256.877 309.439 258.473 313.292C260.069 317.146 262.408 320.647 265.357 323.596L314.398 372.638C315.141 373.381 316.023 373.97 316.993 374.372C317.964 374.774 319.004 374.981 320.055 374.981C321.106 374.981 322.146 374.774 323.117 374.372C324.087 373.97 324.969 373.381 325.712 372.638L374.757 323.596C379.199 319.154 382.223 313.495 383.449 307.334C384.674 301.174 384.045 294.788 381.641 288.984C379.237 283.181 375.166 278.221 369.943 274.732C364.72 271.242 358.58 269.38 352.298 269.38V269.38ZM363.442 312.28L320.057 355.667L276.672 312.28C273.784 309.311 272.18 305.324 272.209 301.182C272.237 297.04 273.895 293.076 276.824 290.147C279.753 287.218 283.718 285.56 287.86 285.532C292.002 285.504 295.988 287.107 298.957 289.996L314.398 305.437C315.141 306.18 316.023 306.769 316.993 307.171C317.964 307.573 319.004 307.78 320.055 307.78C321.106 307.78 322.146 307.573 323.117 307.171C324.087 306.769 324.969 306.18 325.712 305.437L341.157 289.995C344.124 287.098 348.114 285.487 352.26 285.512C356.407 285.537 360.377 287.195 363.31 290.127C366.242 293.06 367.9 297.03 367.925 301.177C367.95 305.323 366.339 309.313 363.442 312.28Z" fill="#002B49"/>
<path d="M476.136 145.697L260.136 17.697C258.898 16.9633 257.484 16.5773 256.045 16.5798C254.605 16.5822 253.193 16.9731 251.957 17.711L35.9571 146.632C34.7682 147.342 33.7838 148.348 33.1002 149.552C32.4166 150.756 32.0572 152.116 32.0571 153.501V489.501C32.0571 491.623 32.9 493.658 34.4003 495.158C35.9006 496.658 37.9354 497.501 40.0571 497.501H40.0741L472.074 496.58C474.193 496.576 476.223 495.731 477.72 494.231C479.217 492.731 480.057 490.699 480.057 488.58V152.58C480.057 151.191 479.695 149.826 479.008 148.62C478.32 147.413 477.331 146.406 476.136 145.697V145.697ZM192.057 273.248V296.58C192.057 298.066 192.471 299.522 193.252 300.786C194.033 302.049 195.15 303.071 196.479 303.735L224.357 317.674C229.544 320.247 234.07 323.978 237.584 328.579C241.099 333.181 243.508 338.529 244.625 344.21L248.213 362.149C248.523 363.698 249.284 365.12 250.401 366.237L251.212 367.048C254 369.83 255.662 373.544 255.88 377.476C256.097 381.409 254.855 385.283 252.392 388.356L249.813 391.58L247.234 394.804C244.01 398.835 239.971 402.14 235.383 404.504C230.794 406.867 225.759 408.237 220.605 408.522C215.451 408.807 210.295 408.002 205.474 406.16C200.652 404.317 196.274 401.478 192.624 397.828L189.717 394.921C188.217 393.421 186.182 392.578 184.06 392.578C181.938 392.578 179.903 393.421 178.403 394.921C176.903 396.421 176.06 398.456 176.06 400.578C176.06 402.7 176.903 404.735 178.403 406.235L181.31 409.142C186.205 414.037 192.016 417.92 198.412 420.569C204.808 423.218 211.663 424.58 218.586 424.579C225.509 424.578 232.363 423.212 238.758 420.561C245.153 417.91 250.963 414.025 255.856 409.128L265.81 421.58C266.848 422.877 268.264 423.819 269.861 424.275L272.014 424.891C284.517 428.508 295.685 435.711 304.136 445.609C312.588 455.507 317.953 467.665 319.567 480.58H133.967L130.867 470.501C122.674 443.937 120.355 415.909 124.072 388.36C127.789 360.81 137.453 334.399 152.393 310.956L158.809 300.875C158.957 300.643 159.092 300.404 159.215 300.158L161.066 296.458C164.052 290.432 168.412 285.191 173.796 281.16C179.179 277.128 185.434 274.418 192.057 273.248ZM276.709 409.59L266.25 396.516C270.373 390.543 272.34 383.345 271.829 376.106C271.318 368.867 268.358 362.017 263.436 356.683L260.314 341.071C258.726 332.998 255.303 325.399 250.309 318.86C245.315 312.322 238.884 307.019 231.514 303.363L208.057 291.636V267.522L240.781 264.547C242.138 264.424 243.441 263.956 244.567 263.188C245.692 262.42 246.603 261.377 247.212 260.158L255.212 244.158C256.142 242.263 256.284 240.077 255.609 238.077C254.934 236.077 253.495 234.425 251.607 233.481C249.719 232.536 247.535 232.377 245.529 233.036C243.524 233.696 241.861 235.121 240.902 237.002L234.894 249.017L156.073 256.18L147.151 242.796L148.198 242.096C154.154 238.11 158.685 232.33 161.134 225.595C163.583 218.86 163.822 211.519 161.817 204.639L187.635 191.73C189.388 190.854 190.757 189.365 191.485 187.546L201.285 163.046C202.793 159.266 205.108 155.861 208.069 153.069C211.03 150.277 214.565 148.165 218.427 146.881L237.427 140.547C240.349 139.579 243.363 138.919 246.422 138.578C249.624 142.258 252.499 146.21 255.016 150.388L263.164 163.969C268.984 173.669 272.058 184.768 272.057 196.08V212.807C272.057 223.416 276.271 233.59 283.773 241.091C291.274 248.593 301.448 252.807 312.057 252.807C322.666 252.807 332.84 248.593 340.341 241.091C347.843 233.59 352.057 223.416 352.057 212.807C352.056 209.564 351.852 206.325 351.447 203.107C354.651 207.245 357.716 211.503 360.641 215.882C386.687 255.045 403.149 299.788 408.697 346.492C413.509 386.979 409.921 428.024 398.157 467.062L394.057 480.746L335.679 480.871C334.081 464.463 327.612 448.908 317.104 436.205C306.595 423.503 292.527 414.234 276.709 409.59V409.59ZM136.767 227.223C136.138 226.279 135.717 225.212 135.531 224.093C135.346 222.974 135.4 221.828 135.692 220.732C135.983 219.636 136.504 218.614 137.22 217.734C137.936 216.855 138.832 216.137 139.846 215.63L147.046 212.03C147.427 215.263 146.907 218.538 145.545 221.495C144.183 224.451 142.032 226.974 139.327 228.786L138.281 229.486L136.767 227.223ZM314.985 166.068C321.601 171.927 326.899 179.121 330.531 187.177C334.163 195.232 336.047 203.966 336.057 212.803C336.072 217.263 334.838 221.638 332.493 225.433C330.148 229.227 326.787 232.288 322.791 234.269C319.456 235.926 315.782 236.789 312.058 236.789C308.333 236.789 304.659 235.926 301.324 234.269C297.328 232.288 293.967 229.227 291.622 225.433C289.277 221.639 288.042 217.263 288.057 212.803V196.08C288.056 181.873 284.195 167.933 276.886 155.75L268.738 142.169C268.506 141.783 268.252 141.41 268.015 141.027C281.404 144.665 294.035 150.664 305.315 158.741C308.615 161.096 311.838 163.539 314.985 166.068ZM464.057 480.597L410.77 480.71L413.485 471.66C425.878 430.527 429.656 387.282 424.585 344.623C418.742 295.412 401.398 248.268 373.957 207.003C360.561 186.887 344.149 168.951 325.297 153.826C323.365 152.134 321.346 150.526 319.235 149.017C318.991 148.843 318.737 148.683 318.474 148.538C317.198 147.588 315.915 146.644 314.618 145.718C299.27 134.722 281.75 127.132 263.231 123.456C252.953 121.404 242.317 122.066 232.373 125.377L213.373 131.71C207.304 133.727 201.749 137.045 197.096 141.432C192.443 145.82 188.804 151.17 186.434 157.11L177.757 178.785L132.688 201.319C129.644 202.841 126.959 204.993 124.81 207.632C122.662 210.271 121.099 213.336 120.225 216.625C119.352 219.914 119.188 223.351 119.744 226.709C120.301 230.066 121.564 233.267 123.452 236.098L129.397 245.014L145.397 269.014C146.196 270.212 147.303 271.172 148.602 271.793C149.901 272.414 151.343 272.673 152.777 272.543L159.9 271.895C154.481 276.834 150.022 282.734 146.749 289.295L145.082 292.629L138.888 302.361C122.702 327.757 112.233 356.37 108.207 386.215C104.18 416.06 106.692 446.423 115.568 475.201L117.454 481.331L48.0571 481.48V158.043L256.072 33.888L464.057 157.139V480.597Z" fill="#002B49"/>
<path d="M216.057 363.58C222.132 363.58 227.057 358.655 227.057 352.58C227.057 346.505 222.132 341.58 216.057 341.58C209.982 341.58 205.057 346.505 205.057 352.58C205.057 358.655 209.982 363.58 216.057 363.58Z" fill="#002B49"/>
<path d="M221.057 200.58C227.132 200.58 232.057 195.655 232.057 189.58C232.057 183.505 227.132 178.58 221.057 178.58C214.982 178.58 210.057 183.505 210.057 189.58C210.057 195.655 214.982 200.58 221.057 200.58Z" fill="#002B49"/>
</svg>
