<svg width="501" height="510" viewBox="0 0 501 510" fill="none" xmlns="http://www.w3.org/2000/svg">
<g clip-path="url(#clip0)">
<path d="M304.715 88.2497C306.574 86.3897 307.645 83.8097 307.645 81.1797C307.645 78.5497 306.575 75.9697 304.715 74.1097C302.855 72.2497 300.275 71.1797 297.645 71.1797C295.005 71.1797 292.435 72.2497 290.565 74.1097C288.706 75.9697 287.645 78.5497 287.645 81.1797C287.645 83.8097 288.706 86.3897 290.565 88.2497C292.435 90.1097 295.005 91.1797 297.645 91.1797C300.275 91.1797 302.855 90.1097 304.715 88.2497V88.2497Z" fill="#002B49"/>
<path d="M421.89 329.904H327.301C348.651 312.961 362.369 286.797 362.369 257.487V191.422C396.18 186.557 422.251 157.409 422.251 122.273C422.251 86.4448 395.141 56.8438 360.359 52.8678C352.956 22.8838 325.841 0.579773 293.603 0.579773C279.015 0.579773 264.766 3.19977 251.252 8.36777C246.093 10.3408 243.51 16.1208 245.482 21.2798C247.454 26.4378 253.237 29.0198 258.394 27.0488C269.62 22.7558 281.466 20.5798 293.604 20.5798C320.494 20.5798 342.37 42.4558 342.37 69.3458C342.37 69.3918 342.376 69.4358 342.377 69.4808V90.1098C342.377 102.369 332.353 112.342 320.03 112.342C316.916 112.342 313.98 113.793 312.088 116.266C310.196 118.739 309.564 121.953 310.379 124.958C314.761 141.125 326.908 154.04 342.377 159.628L342.37 257.486C342.37 297.417 309.884 329.903 269.952 329.903H236.76C246.502 311.854 252.039 291.215 252.039 269.305V199.576C252.039 165.612 227.365 137.321 195.006 131.635V119.176C195.006 106.837 197.254 94.8058 201.687 83.4198C203.691 78.2738 201.143 72.4768 195.997 70.4728C190.849 68.4698 185.054 71.0178 183.051 76.1638C177.713 89.8728 175.007 104.345 175.007 119.176V131.058C140.733 135.052 114.038 164.247 114.038 199.576V329.903H92.0396C86.5166 329.903 82.0396 334.38 82.0396 339.903C82.0396 345.426 86.5166 349.903 92.0396 349.903H114.036V387.308C114.036 392.831 118.514 397.308 124.036 397.308C144.488 397.308 163.831 392.478 180.997 383.912V502.58C180.997 508.103 185.475 512.58 190.997 512.58C246.18 512.58 291.073 467.686 291.073 412.504V349.904H326.754L371.231 394.38C373.184 396.333 375.743 397.309 378.302 397.309C380.861 397.309 383.42 396.332 385.373 394.38C389.278 390.475 389.278 384.143 385.373 380.238L355.039 349.904H421.889C427.411 349.904 431.889 345.427 431.889 339.904C431.89 334.381 427.412 329.904 421.89 329.904V329.904ZM334.511 129.799C350.752 123.887 362.376 108.327 362.376 90.1108V73.4048C385.101 78.0488 402.251 98.1948 402.251 122.273C402.251 146.35 385.101 166.497 362.376 171.141V151.995C362.376 147.153 358.907 143.006 354.141 142.152C346.151 140.72 339.151 136.182 334.511 129.799ZM134.036 199.578C134.036 172.559 156.017 150.577 183.037 150.577C210.057 150.577 232.038 172.559 232.038 199.578C232.038 199.578 232.026 270.677 232.013 271.36C231.752 281.887 223.126 290.376 212.538 290.376C201.785 290.376 193.037 281.628 193.037 270.875V222.374C193.037 216.851 188.559 212.374 183.037 212.374C177.515 212.374 173.037 216.851 173.037 222.374V270.875C173.037 281.628 164.289 290.376 153.536 290.376C142.784 290.376 134.036 281.628 134.036 270.875V199.578ZM134.036 305.205C139.794 308.488 146.447 310.375 153.536 310.375C165.257 310.375 175.796 305.238 183.037 297.104C190.277 305.238 200.817 310.375 212.538 310.375C216.779 310.375 220.861 309.693 224.693 308.451C210.141 345.745 175.439 373.033 134.036 376.85V305.205ZM271.073 412.504C271.073 453.273 240.451 487.024 200.997 491.959V371.521C209.31 365.246 216.834 357.981 223.398 349.904H271.073V412.504Z" fill="#002B49"/>
<path d="M217.044 52.1598C219.674 52.1598 222.254 51.0898 224.113 49.2298C225.973 47.3698 227.044 44.7898 227.044 42.1598C227.044 39.5298 225.974 36.9498 224.113 35.0898C222.254 33.2298 219.674 32.1598 217.044 32.1598C214.403 32.1598 211.834 33.2298 209.974 35.0898C208.114 36.9498 207.044 39.5298 207.044 42.1598C207.044 44.7898 208.113 47.3698 209.974 49.2298C211.834 51.0898 214.403 52.1598 217.044 52.1598Z" fill="#002B49"/>
</g>
<defs>
<clipPath id="clip0">
<rect width="512" height="512" fill="white" transform="translate(0.964355 0.579773)"/>
</clipPath>
</defs>
</svg>
