<svg width="512" height="513" viewBox="0 0 512 513" fill="none" xmlns="http://www.w3.org/2000/svg">
<g clip-path="url(#clip0)">
<path d="M0 273.647C0.0517202 316.041 34.406 350.395 76.8 350.447H162.133V435.78C162.185 478.174 196.539 512.528 238.933 512.58H273.067C315.461 512.528 349.815 478.174 349.867 435.78V385.527C352.662 384.868 355.528 384.55 358.4 384.58C366.049 384.426 373.514 386.933 379.52 391.671C388.424 398.309 399.272 401.816 410.377 401.647C427.049 402.302 442.314 392.346 448.435 376.823C456.699 353.571 450.787 327.637 433.263 310.263C426.214 302.79 420.109 294.479 415.087 285.517C403.806 267.093 392.149 248.047 358.4 248.047C324.651 248.047 312.994 267.093 301.713 285.508C296.691 294.47 290.586 302.781 283.537 310.255C266.013 327.629 260.101 353.562 268.365 376.815C274.483 392.341 289.749 402.301 306.423 401.647C315.722 401.87 324.885 399.389 332.8 394.504V435.78C332.762 468.754 306.041 495.476 273.067 495.513H238.933C205.959 495.476 179.238 468.754 179.2 435.78V350.447C179.2 341.021 171.559 333.38 162.133 333.38H76.8C43.8258 333.342 17.1043 306.621 17.0667 273.647V239.513C17.1043 206.539 43.8258 179.818 76.8 179.78H162.133C171.559 179.78 179.2 172.139 179.2 162.713V77.3801C179.238 44.4059 205.959 17.6844 238.933 17.6467H273.067C306.041 17.6844 332.762 44.4059 332.8 77.3801V142.711C324.46 132.892 311.814 127.816 298.999 129.143C286.628 131.26 276.071 139.29 270.729 150.647C264.626 162.844 262.501 176.647 264.653 190.114C266.381 203.644 272.308 216.292 281.6 226.278C288.853 234.307 299.08 239.014 309.897 239.3C311.53 239.298 313.161 239.181 314.778 238.95C327.149 236.833 337.706 228.804 343.049 217.446C347.649 208.432 349.989 198.433 349.867 188.313V77.3801C349.815 34.9861 315.461 0.631798 273.067 0.580078H238.933C196.539 0.631798 162.185 34.9861 162.133 77.3801V162.713H76.8C34.406 162.765 0.0517202 197.119 0 239.513L0 273.647ZM306.423 384.58C296.679 385.229 287.651 379.45 284.16 370.329C278.686 353.468 283.089 334.962 295.569 322.372C303.605 313.95 310.564 304.562 316.288 294.425C327.074 276.77 334.217 265.113 358.4 265.113C382.583 265.113 389.726 276.77 400.529 294.425C406.253 304.562 413.212 313.95 421.248 322.372C433.722 334.966 438.118 353.471 432.64 370.329C429.149 379.45 420.121 385.229 410.377 384.58C402.595 384.757 394.995 382.219 388.881 377.404C370.7 364.217 346.1 364.217 327.919 377.404C321.805 382.219 314.205 384.757 306.423 384.58ZM327.953 209.476C325.451 216.218 319.463 221.052 312.345 222.075C305.227 223.099 298.119 220.147 293.82 214.383C287.039 206.985 282.743 197.652 281.532 187.69C279.879 177.792 281.371 167.624 285.798 158.617C288.655 152.147 294.468 147.459 301.397 146.039C315.17 144.085 329.242 159.804 332.203 180.403C332.573 182.975 332.764 185.57 332.774 188.168V188.313C332.913 195.655 331.258 202.919 327.953 209.476V209.476Z" fill="#002B49"/>
<path d="M222.157 219.631C205.218 227.84 199.791 251.742 210.048 272.921C216.493 287.919 230.774 298.061 247.057 299.204C251.323 299.224 255.538 298.269 259.379 296.414C276.318 288.205 281.745 264.294 271.48 243.132C261.214 221.969 239.096 211.422 222.157 219.631V219.631ZM251.938 281.071C243.593 285.116 231.458 277.965 225.408 265.48C219.358 252.996 221.278 239.027 229.598 234.999C231.195 234.232 232.947 233.844 234.718 233.864C244.349 235.184 252.531 241.569 256.154 250.59C262.178 263.065 260.267 277.06 251.938 281.062V281.071Z" fill="#002B49"/>
<path d="M402.023 238.95C403.639 239.181 405.27 239.298 406.904 239.3C417.719 239.01 427.944 234.304 435.2 226.278C444.492 216.292 450.419 203.644 452.147 190.114C454.299 176.647 452.174 162.844 446.072 150.647C440.729 139.29 430.172 131.26 417.801 129.143C394.547 125.798 372.028 147.703 367.676 177.98C365.532 191.447 367.657 205.247 373.752 217.446C379.094 228.804 389.651 236.833 402.023 238.95ZM384.572 180.403C387.371 160.973 400.068 145.869 413.031 145.869C413.816 145.87 414.6 145.927 415.377 146.039C422.307 147.459 428.119 152.147 430.976 158.617C435.403 167.624 436.895 177.792 435.243 187.69C434.032 197.652 429.735 206.985 422.955 214.383C418.655 220.147 411.548 223.099 404.43 222.075C397.312 221.052 391.323 216.218 388.821 209.476C384.404 200.466 382.918 190.3 384.572 180.403V180.403Z" fill="#002B49"/>
<path d="M457.387 296.414C461.228 298.269 465.443 299.224 469.709 299.204C485.994 298.057 500.274 287.912 506.718 272.913C516.958 251.742 511.548 227.84 494.609 219.631C477.671 211.422 455.552 221.969 445.286 243.132C435.021 264.294 440.482 288.205 457.387 296.414ZM482.133 233.856C483.905 233.835 485.657 234.224 487.253 234.991C495.573 239.018 497.493 252.988 491.443 265.472C485.393 277.956 473.233 285.098 464.922 281.062C456.61 277.026 454.682 263.065 460.732 250.581C464.348 241.57 472.515 235.187 482.133 233.856V233.856Z" fill="#002B49"/>
<path d="M51.2 239.513C51.2 225.375 62.6615 213.913 76.8 213.913C81.5128 213.913 85.3333 210.093 85.3333 205.38C85.3333 200.667 81.5128 196.847 76.8 196.847C53.2475 196.875 34.1615 215.961 34.1333 239.513C34.1333 244.226 37.9538 248.047 42.6666 248.047C47.3795 248.047 51.2 244.226 51.2 239.513Z" fill="#002B49"/>
<path d="M119.467 213.913C124.179 213.913 128 210.093 128 205.38C128 200.667 124.179 196.847 119.467 196.847H110.933C106.22 196.847 102.4 200.667 102.4 205.38C102.4 210.093 106.22 213.913 110.933 213.913H119.467Z" fill="#002B49"/>
</g>
<defs>
<clipPath id="clip0">
<rect width="512" height="512" fill="white" transform="translate(0 0.580078)"/>
</clipPath>
</defs>
</svg>
