<svg width="512" height="512" viewBox="0 0 512 512" fill="none" xmlns="http://www.w3.org/2000/svg">
<g clip-path="url(#clip0)">
<path d="M128 250.667C134.48 250.667 139.733 245.413 139.733 238.933C139.733 232.453 134.48 227.2 128 227.2C121.52 227.2 116.267 232.453 116.267 238.933C116.267 245.413 121.52 250.667 128 250.667Z" fill="#002B49"/>
<path d="M199.467 250.667C205.947 250.667 211.2 245.413 211.2 238.933C211.2 232.453 205.947 227.2 199.467 227.2C192.987 227.2 187.733 232.453 187.733 238.933C187.733 245.413 192.987 250.667 199.467 250.667Z" fill="#002B49"/>
<path d="M42.6666 191.267V224.427C42.6282 236.559 49.4869 247.659 60.3551 253.051L76.7999 261.274V281.6C76.7999 282.686 77.0069 283.761 77.4101 284.769L93.2095 324.267L78.0629 362.133L58.7018 381.497C53.8837 386.289 51.1818 392.81 51.1999 399.605V429.6C51.169 440.919 55.6682 451.78 63.6938 459.762L71.0773 467.146C63.9626 471.881 59.7013 479.871 59.7333 488.416V503.467C59.7333 508.179 63.5541 512 68.2666 512H256C260.712 512 264.533 508.179 264.533 503.467V490.165C264.542 479.721 258.196 470.32 248.506 466.421L256 460.8C264.328 454.519 270.081 445.418 272.178 435.2H292.267C295.799 435.203 298.663 438.067 298.667 441.6V477.867C298.667 496.718 313.949 512 332.8 512C351.651 512 366.933 496.718 366.933 477.867V323.413C386.786 319.332 401.043 301.868 401.067 281.6V196.267C401.067 191.554 397.246 187.733 392.533 187.733H366.933V169.586C385.188 164.881 396.173 146.27 391.469 128.015C388.367 115.98 378.968 106.581 366.933 103.479V51.2H418.133V456.234L417.634 456.566C401.937 467.007 392.513 484.615 392.533 503.467C392.533 508.179 396.354 512 401.067 512H486.4C491.112 512 494.933 508.179 494.933 503.467C494.954 484.614 485.53 467.006 469.832 456.565L469.333 456.233V8.53333C469.333 3.8208 465.512 0 460.8 0H349.867C335.728 0 324.267 11.4613 324.267 25.6C324.267 39.7387 335.728 51.2 349.867 51.2V110.933C349.867 115.646 353.687 119.467 358.4 119.467C367.826 119.467 375.467 127.108 375.466 136.534C375.466 145.961 367.824 153.601 358.398 153.6C353.541 153.6 348.914 151.53 345.677 147.909C342.533 144.398 337.139 144.099 333.627 147.242C330.115 150.385 329.816 155.779 332.96 159.292C337.459 164.31 343.341 167.887 349.867 169.572V187.733H324.267C319.554 187.733 315.733 191.554 315.733 196.267V281.6C315.757 301.868 330.014 319.332 349.867 323.413V477.867C349.867 487.293 342.226 494.933 332.8 494.933C323.374 494.933 315.733 487.293 315.733 477.867V441.6C315.718 428.645 305.221 418.148 292.267 418.133H273.067V399.605C273.085 392.81 270.383 386.289 265.565 381.497L246.206 362.133L231.059 324.267L246.859 284.769C247.261 283.761 247.468 282.686 247.467 281.6V261.274L263.916 253.049C274.782 247.655 281.639 236.557 281.6 224.427V191.267L293.458 179.413C302.287 170.631 307.236 158.683 307.2 146.229V112.661C307.202 97.5701 294.97 85.3355 279.878 85.3333C279.876 85.3333 279.874 85.3333 279.872 85.3333C273.482 85.3429 267.295 87.5819 262.379 91.664L225.624 122.293C217.825 128.769 213.318 138.385 213.333 148.523V160.853C213.087 160.814 212.842 160.767 212.595 160.733L211.604 160.581C178.762 155.898 145.42 155.903 112.578 160.594L111.773 160.717C111.491 160.757 111.213 160.809 110.933 160.854V148.523C110.948 138.387 106.444 128.773 98.6463 122.298L61.8751 91.6512C56.961 87.5765 50.7786 85.3419 44.3946 85.3333C29.3034 85.3312 17.0687 97.5637 17.0666 112.655V112.661V146.229C17.0303 158.683 21.9786 170.631 30.8085 179.413L42.6666 191.267ZM460.366 470.766C468.804 476.379 474.741 485.039 476.934 494.933H410.532C412.724 485.039 418.662 476.379 427.101 470.767L429.25 469.333H458.216L460.366 470.766ZM435.2 452.267V51.2H452.267V452.267H435.2ZM349.867 34.1333C345.154 34.1333 341.333 30.3125 341.333 25.6C341.333 20.8875 345.154 17.0667 349.867 17.0667H452.267V34.1333H349.867ZM332.8 204.8H384V221.867H332.8V204.8ZM332.8 281.6V238.933H384V281.6C384 295.739 372.539 307.2 358.4 307.2C344.261 307.2 332.8 295.739 332.8 281.6ZM93.8666 494.933H76.7999V488.416C76.7882 485.182 78.6143 482.222 81.5114 480.784L89.1498 476.965C90.0383 476.519 90.8426 475.922 91.5263 475.2L93.8666 479.882V494.933ZM221.867 458.785L214.235 474.05C213.642 475.235 213.333 476.542 213.333 477.867V494.933H196.267V477.867C196.267 476.542 195.958 475.235 195.365 474.05L187.733 458.785V452.267H221.867V458.785ZM221.867 435.2H187.733V418.133H221.867V435.2ZM247.467 494.933H230.4V479.882L231.066 478.549L241.626 482.069C245.112 483.229 247.466 486.491 247.467 490.165V494.933ZM245.76 447.147L238.933 452.267V435.2H254.518C252.837 439.956 249.791 444.112 245.76 447.147V447.147ZM232.899 372.967L253.496 393.565C255.105 395.163 256.006 397.339 256 399.605V418.133H238.933V409.6C238.933 404.887 235.112 401.067 230.4 401.067H179.2C174.487 401.067 170.667 404.887 170.667 409.6V460.8C170.667 462.125 170.975 463.431 171.568 464.617L179.2 479.882V494.933H145.067V479.882L152.699 464.617C153.292 463.431 153.6 462.125 153.6 460.8V418.133C153.6 413.421 149.779 409.6 145.067 409.6C140.354 409.6 136.533 413.421 136.533 418.133V458.785L128.901 474.05C128.308 475.235 128 476.542 128 477.867V494.933H110.933V477.867C110.933 476.542 110.625 475.235 110.032 474.05L102.4 458.785V418.133C102.4 413.421 98.5791 409.6 93.8666 409.6C89.1541 409.6 85.3333 413.421 85.3333 418.133V457.266L75.7621 447.694C70.9791 442.884 68.2858 436.383 68.2666 429.6V399.605C68.2602 397.339 69.1615 395.163 70.7701 393.565L91.3674 372.967C92.1845 372.15 92.8266 371.175 93.2565 370.102L102.896 346.003C116.093 361.089 139.02 362.62 154.106 349.423C156.518 347.312 158.641 344.892 160.417 342.224L162.133 339.65L163.848 342.224C174.959 358.907 197.489 363.424 214.172 352.315C216.839 350.538 219.26 348.416 221.371 346.003L231.01 370.102C231.44 371.175 232.082 372.15 232.899 372.967V372.967ZM153.006 322.578L146.219 332.757C140.321 341.609 128.364 344.003 119.512 338.105C114.151 334.532 110.931 328.515 110.933 322.074V309.393C110.946 298.762 119.562 290.146 130.193 290.133H138.001C133.363 303.228 140.023 317.631 153.004 322.578H153.006ZM153.6 298.667C153.6 293.954 157.421 290.133 162.133 290.133C166.846 290.133 170.667 293.954 170.667 298.667C170.667 303.379 166.846 307.2 162.133 307.2C157.423 307.195 153.605 303.377 153.6 298.667ZM186.266 290.133H194.074C204.705 290.146 213.32 298.762 213.333 309.393V322.074C213.333 332.71 204.71 341.333 194.074 341.333C187.634 341.333 181.621 338.115 178.049 332.757L171.263 322.578C184.243 317.631 190.903 303.228 186.266 290.133V290.133ZM230.4 148.523C230.391 143.452 232.644 138.641 236.546 135.403L273.288 104.781C275.139 103.246 277.468 102.403 279.872 102.4C285.538 102.399 290.132 106.991 290.133 112.657V112.661V146.229C290.155 154.153 287.005 161.755 281.387 167.342L267.029 181.699C265.43 183.3 264.532 185.471 264.533 187.733V224.427C264.551 230.089 261.35 235.269 256.279 237.787L247.467 242.193V200.992C247.464 197.946 247.122 194.909 246.446 191.939L271.36 158.72C272.468 157.243 273.067 155.446 273.067 153.6V136.533C273.067 131.821 269.246 128 264.533 128C259.821 128 256 131.821 256 136.533V150.755L237.917 174.862C237.179 173.989 236.408 173.137 235.591 172.319L235.442 172.17C233.879 170.618 232.193 169.195 230.4 167.917V148.523ZM100.743 184.391L100.893 184.242C104.504 180.635 109.192 178.303 114.248 177.598L115.071 177.472C146.259 173.021 177.922 173.015 209.111 177.459L210.119 177.613C215.137 178.335 219.787 180.66 223.374 184.242L223.523 184.391C227.94 188.784 230.417 194.763 230.4 200.992V279.956L225.735 291.617C219.308 280.169 207.203 273.077 194.074 273.067H130.193C117.063 273.077 104.959 280.169 98.5311 291.617L93.8666 279.956V200.992C93.8495 194.763 96.3263 188.784 100.743 184.391V184.391ZM34.1333 112.661C34.1322 106.995 38.7242 102.401 44.3903 102.4H44.3946C46.7935 102.404 49.1157 103.244 50.9631 104.774L87.7258 135.412C91.6234 138.65 93.8741 143.456 93.8666 148.523V167.918C92.0725 169.197 90.3861 170.621 88.8245 172.174L88.6751 172.323C87.8581 173.141 87.0879 173.994 86.3498 174.866L68.2666 150.755V136.533C68.2666 131.821 64.4458 128 59.7333 128C55.0207 128 51.1999 131.821 51.1999 136.533V153.6C51.1999 155.446 51.7983 157.243 52.9066 158.72L77.8207 191.939C77.1445 194.909 76.8021 197.946 76.7999 200.992V242.193L67.9914 237.789C62.9183 235.271 59.7151 230.091 59.7333 224.427V187.733C59.7333 185.47 58.8341 183.299 57.2341 181.699L42.8799 167.342C37.2618 161.755 34.1119 154.153 34.1333 146.229V112.661Z" fill="#002B49"/>
<path d="M366.933 290.133V281.6H375.467V264.533H366.933V256H349.867V264.533H341.333V281.6H349.867V290.133H366.933Z" fill="#002B49"/>
<path d="M315.733 341.333H332.8V358.4H315.733V341.333Z" fill="#002B49"/>
<path d="M315.733 375.467H332.8V409.6H315.733V375.467Z" fill="#002B49"/>
</g>
<defs>
<clipPath id="clip0">
<rect width="512" height="512" fill="white"/>
</clipPath>
</defs>
</svg>
