<svg width="512" height="512" viewBox="0 0 512 512" fill="none" xmlns="http://www.w3.org/2000/svg">
<g clip-path="url(#clip0)">
<path d="M8.53349 221.867H17.0668V494.933H8.53349C3.82066 494.933 0.000151234 498.754 0.000151234 503.467C0.000151234 508.179 3.82066 512 8.53349 512H503.467C508.18 512 512 508.179 512 503.467C512 498.754 508.18 494.933 503.467 494.933H494.934V221.867H503.467C506.135 221.868 508.65 220.622 510.265 218.498C511.88 216.374 512.408 213.617 511.693 211.046L472.491 69.9733C469.397 58.899 459.319 51.2304 447.821 51.2H313.788L261.854 2.32105C258.567 -0.77824 253.434 -0.77824 250.146 2.32105L198.221 51.2H64.1794C52.6798 51.2324 42.6011 58.8994 39.501 69.9733L0.307351 211.046C-0.407693 213.617 0.120687 216.374 1.73543 218.498C3.35018 220.622 5.86541 221.868 8.53349 221.867V221.867ZM34.1335 221.867H128V256H68.2668C58.8412 256 51.2002 263.641 51.2002 273.067V332.8C51.2002 342.226 58.8412 349.867 68.2668 349.867H128V366.933H68.2668C58.8412 366.933 51.2002 374.574 51.2002 384V443.733C51.2002 453.159 58.8412 460.8 68.2668 460.8H128V494.933H34.1335V221.867ZM68.2668 443.733V384H85.3335V443.733H68.2668ZM102.4 384H128V443.733H102.4V384ZM68.2668 332.8V273.067H85.3335V332.8H68.2668ZM102.4 273.067H128V332.8H102.4V273.067ZM247.467 443.733H238.933C234.221 443.733 230.4 447.554 230.4 452.267C230.4 456.979 234.221 460.8 238.933 460.8H247.467V494.933H187.733V384H247.467V443.733ZM264.533 494.933V460.8H273.067C277.78 460.8 281.6 456.979 281.6 452.267C281.6 447.554 277.78 443.733 273.067 443.733H264.533V384H324.267V494.933H264.533ZM443.734 273.067V332.8H426.667V273.067H443.734ZM409.6 332.8H384V273.067H409.6V332.8ZM443.734 384V443.733H426.667V384H443.734ZM409.6 443.733H384V384H409.6V443.733ZM477.867 494.933H384V460.8H443.734C453.159 460.8 460.8 453.159 460.8 443.733V384C460.8 374.574 453.159 366.933 443.734 366.933H384V349.867H443.734C453.159 349.867 460.8 342.226 460.8 332.8V273.067C460.8 263.641 453.159 256 443.734 256H384V221.867H477.867V494.933ZM447.821 68.2667C451.655 68.2644 455.02 70.8194 456.047 74.5131L492.246 204.8H384V140.723L395.213 151.279C398.644 154.512 404.046 154.351 407.279 150.921C410.512 147.49 410.352 142.087 406.921 138.854L331.947 68.2667H447.821ZM256 20.2496L366.934 124.663V494.933H341.334V384C341.334 374.574 333.693 366.933 324.267 366.933H187.733C178.308 366.933 170.667 374.574 170.667 384V494.933H145.067V124.663L256 20.2496ZM55.9447 74.5216C56.985 70.8318 60.3457 68.279 64.1794 68.2667H180.053L105.045 138.854C102.826 140.946 101.891 144.062 102.592 147.03C103.294 149.998 105.525 152.366 108.446 153.242C111.367 154.119 114.534 153.37 116.753 151.279L128 140.723V204.8H19.7548L55.9447 74.5216Z" fill="#002B49"/>
<path d="M204.8 207.642C204.8 214.989 208.495 238.933 256 238.933C303.505 238.933 307.2 214.989 307.2 207.642C307.2 192.512 282.855 153.6 256 153.6C229.146 153.6 204.8 192.512 204.8 207.642ZM256 170.667C271.923 170.667 290.134 200.243 290.134 207.642C290.134 216.414 277.061 221.867 256 221.867C234.94 221.867 221.867 216.414 221.867 207.642C221.867 200.243 240.077 170.667 256 170.667Z" fill="#002B49"/>
<path d="M223.906 144.657C225.63 144.658 227.348 144.457 229.026 144.06C243.599 139.299 251.633 123.703 247.049 109.073C245.43 101.864 241.414 95.4171 235.657 90.7861C230.014 86.0177 222.444 84.2092 215.256 85.9125C208.067 87.6157 202.114 92.6287 199.211 99.4218C196.14 106.142 195.442 113.706 197.231 120.875C199.656 133.959 210.63 143.743 223.906 144.657ZM214.613 106.752C215.443 104.747 217.112 103.208 219.179 102.545C221.325 102.189 223.518 102.816 225.152 104.252C227.823 106.518 229.669 109.606 230.4 113.032C231.97 119.663 229.47 126.404 225.041 127.454C220.612 128.503 215.356 123.605 213.786 116.966C212.921 113.564 213.212 109.971 214.613 106.752Z" fill="#002B49"/>
<path d="M187.733 187.733C201.872 187.733 213.333 176.272 213.333 162.133C213.333 147.995 201.872 136.533 187.733 136.533C173.595 136.533 162.133 147.995 162.133 162.133C162.133 176.272 173.595 187.733 187.733 187.733ZM187.733 153.6C192.446 153.6 196.267 157.42 196.267 162.133C196.267 166.846 192.446 170.667 187.733 170.667C183.02 170.667 179.2 166.846 179.2 162.133C179.2 157.42 183.02 153.6 187.733 153.6Z" fill="#002B49"/>
<path d="M282.991 144.06C284.669 144.457 286.387 144.658 288.111 144.657C301.386 143.753 312.366 133.98 314.803 120.9C316.592 113.731 315.894 106.168 312.824 99.4475C309.921 92.6543 303.967 87.6414 296.779 85.9381C289.59 84.2349 282.02 86.0433 276.378 90.8117C270.621 95.4427 266.605 101.89 264.986 109.099C260.416 123.715 268.438 139.292 282.991 144.06V144.06ZM281.6 113.033C282.347 109.602 284.211 106.517 286.899 104.26C288.227 103.153 289.875 102.501 291.601 102.4C292.012 102.398 292.422 102.447 292.822 102.545C294.888 103.208 296.557 104.747 297.387 106.752C298.783 109.982 299.062 113.585 298.181 116.992C296.61 123.631 291.286 128.538 286.925 127.479C282.565 126.421 280.005 119.663 281.6 113.033V113.033Z" fill="#002B49"/>
<path d="M298.667 162.133C298.667 176.272 310.129 187.733 324.267 187.733C338.405 187.733 349.867 176.272 349.867 162.133C349.867 147.995 338.405 136.533 324.267 136.533C310.129 136.533 298.667 147.995 298.667 162.133ZM324.267 153.6C328.98 153.6 332.8 157.42 332.8 162.133C332.8 166.846 328.98 170.667 324.267 170.667C319.554 170.667 315.734 166.846 315.734 162.133C315.734 157.42 319.554 153.6 324.267 153.6Z" fill="#002B49"/>
<path d="M230.4 256H187.734C178.308 256 170.667 263.641 170.667 273.067V332.8C170.667 342.226 178.308 349.867 187.734 349.867H230.4C239.826 349.867 247.467 342.226 247.467 332.8V273.067C247.467 263.641 239.826 256 230.4 256ZM187.734 332.8V273.067H230.4V332.8H187.734Z" fill="#002B49"/>
<path d="M264.534 273.067V332.8C264.534 342.226 272.175 349.867 281.6 349.867H324.267C333.693 349.867 341.334 342.226 341.334 332.8V273.067C341.334 263.641 333.693 256 324.267 256H281.6C272.175 256 264.534 263.641 264.534 273.067ZM324.267 332.8H281.6V273.067H324.267V332.8Z" fill="#002B49"/>
<path d="M48.751 187.375C49.5453 187.614 50.3705 187.735 51.2001 187.733C54.9698 187.734 58.2931 185.26 59.375 181.649L83.1489 102.4H102.4C107.113 102.4 110.933 98.5795 110.933 93.8666C110.933 89.1538 107.113 85.3333 102.4 85.3333H83.1489C75.5981 85.2988 68.9335 90.259 66.799 97.5018L43.0251 176.751C42.3754 178.919 42.6137 181.256 43.6876 183.249C44.7614 185.241 46.5828 186.726 48.751 187.375V187.375Z" fill="#002B49"/>
<path d="M428.851 102.4L452.625 181.649C453.707 185.26 457.03 187.734 460.8 187.733C461.629 187.731 462.454 187.61 463.249 187.375C465.418 186.726 467.239 185.241 468.313 183.249C469.387 181.256 469.625 178.919 468.975 176.751L445.201 97.5018C443.067 90.259 436.402 85.2988 428.851 85.3333H409.6C404.887 85.3333 401.067 89.1538 401.067 93.8666C401.067 98.5795 404.887 102.4 409.6 102.4H428.851Z" fill="#002B49"/>
</g>
<defs>
<clipPath id="clip0">
<rect width="512" height="512" fill="white"/>
</clipPath>
</defs>
</svg>
