<svg width="512" height="512" viewBox="0 0 512 512" fill="none" xmlns="http://www.w3.org/2000/svg">
<g clip-path="url(#clip0)">
<path d="M76.7998 512H435.2C449.338 512 460.8 500.539 460.8 486.4V201.02L471.663 208.7C483.228 216.836 499.2 214.057 507.336 202.492C515.473 190.926 512.694 174.955 501.128 166.818L418.133 108.373V25.6C418.133 11.4615 406.672 0 392.533 0H358.4C344.261 0 332.8 11.4615 332.8 25.6V48.3413L270.728 4.6592C261.882 -1.53209 250.109 -1.53209 241.263 4.6592L10.8627 166.793C2.38913 172.75 -1.65901 183.228 0.607243 193.335C2.87349 203.443 11.0074 211.188 21.2136 212.958C22.6822 213.209 24.1696 213.335 25.6595 213.333C30.9167 213.331 36.0443 211.701 40.3368 208.666L51.1998 201.02V486.4C51.1998 500.539 62.6613 512 76.7998 512V512ZM349.866 25.6C349.866 20.8872 353.687 17.0667 358.4 17.0667H392.533C397.246 17.0667 401.066 20.8872 401.066 25.6V96.3755L349.866 60.3477V25.6ZM30.5064 194.714C26.652 197.333 21.4091 196.375 18.7292 192.563C16.0493 188.75 16.9236 183.493 20.6931 180.753L251.093 18.6197C254.043 16.5593 257.965 16.5593 260.915 18.6197L491.315 180.753C493.884 182.477 495.318 185.457 495.063 188.54C494.809 191.624 492.905 194.328 490.088 195.607C487.272 196.887 483.983 196.542 481.493 194.705L260.915 39.4923C257.967 37.4152 254.032 37.4152 251.085 39.4923L30.5064 194.714ZM68.2664 189.013L256 56.9003L443.733 189.013V486.4C443.733 491.113 439.913 494.933 435.2 494.933H76.7998C72.0869 494.933 68.2664 491.113 68.2664 486.4V189.013Z" fill="#002B49"/>
<path d="M85.333 274.773C85.333 342.579 129.322 436.344 253.312 477.457C255.057 478.036 256.942 478.036 258.688 477.457C382.677 436.318 426.666 342.554 426.666 274.773C426.666 211.627 387.311 162.133 337.066 162.133C306.741 162.288 277.667 174.239 256 195.456C234.332 174.239 205.258 162.288 174.933 162.133C124.689 162.133 85.333 211.627 85.333 274.773ZM174.933 179.2C203.413 179.576 230.413 191.948 249.292 213.274C250.908 215.323 253.373 216.521 255.983 216.525C258.595 216.524 261.064 215.326 262.681 213.274C281.567 191.941 308.578 179.569 337.066 179.2C377.745 179.2 409.6 221.167 409.6 274.773C409.6 336.41 369.297 421.666 256 460.356C142.703 421.641 102.4 336.384 102.4 274.773C102.4 221.167 134.255 179.2 174.933 179.2Z" fill="#002B49"/>
<path d="M302.302 336.213C292.975 319.497 281.378 298.667 256 298.667C230.622 298.667 219.025 319.497 209.698 336.213C206.697 342.073 203.176 347.65 199.177 352.879C187.986 366.233 184.891 384.595 191.087 400.879C196.293 412.034 207.787 418.875 220.075 418.133C227.365 417.955 234.544 416.3 241.178 413.269C245.822 411.062 250.863 409.814 256 409.6C261.137 409.814 266.178 411.062 270.822 413.269C277.456 416.3 284.635 417.955 291.925 418.133C304.216 418.891 315.721 412.059 320.939 400.905C327.134 384.62 324.04 366.259 312.849 352.905C308.839 347.669 305.309 342.082 302.302 336.213V336.213ZM305.434 393.677C302.959 398.76 297.541 401.724 291.925 401.067C286.788 400.852 281.747 399.604 277.103 397.397C270.47 394.366 263.291 392.712 256 392.533C248.709 392.712 241.53 394.366 234.897 397.397C230.253 399.604 225.212 400.852 220.075 401.067C214.465 401.729 209.049 398.776 206.566 393.702C203.13 383.458 205.277 372.164 212.233 363.895C216.949 357.842 221.091 351.363 224.606 344.542C234.59 326.622 241.673 315.733 256 315.733C270.327 315.733 277.41 326.613 287.394 344.542C290.909 351.363 295.051 357.842 299.767 363.895C306.723 372.164 308.87 383.458 305.434 393.702V393.677Z" fill="#002B49"/>
<path d="M179.703 261.606C183.373 282.829 199.057 298.231 215.91 298.231C217.486 298.233 219.059 298.099 220.612 297.83C230.384 295.865 238.646 289.385 242.884 280.363C251.979 260.954 247.992 237.932 232.9 222.711C226.02 215.406 215.932 212.044 206.045 213.762C196.158 215.479 187.795 222.047 183.782 231.245C179.201 240.666 177.771 251.31 179.703 261.606V261.606ZM198.98 238.933C200.838 234.742 204.525 231.641 208.973 230.528C209.591 230.432 210.216 230.389 210.841 230.4C214.76 230.643 218.449 232.327 221.201 235.127C230.764 245.145 233.326 259.948 227.686 272.597C225.833 276.791 222.149 279.895 217.702 281.011C208.623 282.633 198.886 272.375 196.514 258.697C195.231 252.014 196.095 245.096 198.98 238.933V238.933Z" fill="#002B49"/>
<path d="M195.336 315.059C191.132 297.896 173.897 287.313 156.689 291.328C148.654 293.906 142.213 299.973 139.161 307.84C132.771 324.269 138.567 342.934 153.139 352.853C157.838 355.985 163.347 357.681 168.994 357.734C171.688 357.734 174.366 357.325 176.938 356.523C184.977 353.948 191.421 347.88 194.474 340.011C197.661 332.048 197.965 323.223 195.336 315.059ZM178.713 333.466C177.672 336.696 175.123 339.218 171.882 340.225C168.64 341.232 165.112 340.598 162.423 338.526C154.767 333.09 151.692 323.205 154.914 314.385C156.063 311.224 158.568 308.744 161.74 307.627C162.649 307.343 163.596 307.199 164.548 307.2C171.608 308.052 177.394 313.205 179.055 320.119C180.473 324.476 180.353 329.187 178.713 333.466V333.466Z" fill="#002B49"/>
<path d="M291.686 297.813C293.236 298.082 294.807 298.216 296.38 298.214C313.242 298.214 328.917 282.803 332.595 261.589C334.519 251.303 333.095 240.671 328.533 231.253C324.293 222.23 316.027 215.75 306.253 213.786C287.753 210.62 269.355 226.825 265.344 250.01C261.333 273.195 273.135 294.613 291.686 297.813V297.813ZM301.449 230.4C302.078 230.399 302.706 230.453 303.326 230.562C307.772 231.675 311.456 234.776 313.31 238.967C316.188 245.12 317.051 252.025 315.776 258.697C313.412 272.35 303.693 282.59 294.596 281.011C285.5 279.433 279.774 266.547 282.138 252.851C284.348 240.145 292.915 230.4 301.449 230.4V230.4Z" fill="#002B49"/>
<path d="M355.311 291.328C338.101 287.309 320.864 297.893 316.663 315.059C314.031 323.222 314.333 332.047 317.517 340.011C320.57 347.88 327.014 353.948 335.053 356.523C337.625 357.325 340.303 357.734 342.997 357.734C348.644 357.681 354.153 355.985 358.852 352.853C373.424 342.934 379.22 324.269 372.83 307.84C369.78 299.975 363.342 293.908 355.311 291.328V291.328ZM357.41 327.723C356.114 332.115 353.349 335.929 349.576 338.526C346.888 340.598 343.359 341.232 340.118 340.225C336.876 339.218 334.328 336.696 333.286 333.466C331.654 329.188 331.54 324.48 332.962 320.128C335.71 311.288 343.612 305.621 350.242 307.627C353.414 308.744 355.919 311.224 357.069 314.385C358.706 318.661 358.827 323.369 357.41 327.723V327.723Z" fill="#002B49"/>
</g>
<defs>
<clipPath id="clip0">
<rect width="512" height="512" fill="white"/>
</clipPath>
</defs>
</svg>
