<svg width="481" height="481" viewBox="0 0 481 481" fill="none" xmlns="http://www.w3.org/2000/svg">
<g clip-path="url(#clip0)">
<path d="M261.446 348.947C225.956 348.947 197.082 375.76 197.082 408.717C197.082 423.816 205.619 432.475 220.505 432.475C227.609 432.475 235.55 430.635 243.23 428.856C249.798 427.334 256.59 425.761 261.447 425.761C265.709 425.761 272.168 427.267 278.414 428.723C286.324 430.568 294.504 432.475 301.918 432.474C317.103 432.473 325.814 423.813 325.814 408.716C325.812 375.76 296.937 348.947 261.446 348.947ZM301.916 415.476C296.458 415.477 289.247 413.795 282.273 412.169C274.76 410.417 267.664 408.762 261.446 408.762C254.646 408.762 246.891 410.558 239.392 412.296C232.643 413.859 225.664 415.476 220.504 415.476C215.381 415.476 214.081 414.812 214.081 408.718C214.081 385.135 235.328 365.948 261.445 365.948C287.563 365.948 308.811 385.134 308.811 408.718C308.812 414.401 307.717 415.475 301.916 415.476Z" fill="#002B49"/>
<path d="M226.232 326.523C226.232 308.989 214.211 294.725 199.433 294.725C184.655 294.725 172.631 308.99 172.631 326.523C172.631 344.058 184.654 358.323 199.433 358.323C214.211 358.323 226.232 344.058 226.232 326.523ZM189.632 326.523C189.632 318.64 194.212 311.725 199.434 311.725C204.654 311.725 209.233 318.64 209.233 326.523C209.233 334.407 204.654 341.323 199.434 341.323C194.212 341.323 189.632 334.407 189.632 326.523Z" fill="#002B49"/>
<path d="M263.373 337.343C278.151 337.343 290.174 323.078 290.174 305.544C290.174 288.01 278.152 273.745 263.373 273.745C248.596 273.745 236.574 288.01 236.574 305.544C236.574 323.078 248.596 337.343 263.373 337.343ZM263.373 290.745C268.594 290.745 273.174 297.66 273.174 305.544C273.174 313.428 268.594 320.343 263.373 320.343C258.153 320.343 253.574 313.427 253.574 305.544C253.574 297.66 258.153 290.745 263.373 290.745Z" fill="#002B49"/>
<path d="M327.314 294.725C312.536 294.725 300.513 308.99 300.513 326.523C300.513 344.058 312.535 358.323 327.314 358.323C342.092 358.323 354.116 344.058 354.116 326.523C354.116 308.99 342.093 294.725 327.314 294.725ZM327.314 341.323C322.093 341.323 317.513 334.407 317.513 326.523C317.513 318.64 322.093 311.725 327.314 311.725C332.536 311.725 337.116 318.64 337.116 326.523C337.116 334.407 332.536 341.323 327.314 341.323Z" fill="#002B49"/>
<path d="M479.068 176.702C479.068 131.489 442.284 94.705 397.071 94.705C386.409 94.705 375.827 96.795 366.021 100.797C352.729 76.789 327.519 61.706 299.576 61.706C270.329 61.706 244.277 78.063 231.507 103.899C212.351 102.524 193.878 108.309 179.148 119.92C166.441 107.616 149.537 100.704 131.585 100.704C93.8152 100.704 63.0882 131.432 63.0882 169.201C63.0882 178.287 64.8822 186.957 68.1092 194.898C59.2992 202.95 55.2092 215.235 57.5182 228.077L88.9132 402.64C76.2372 399.627 54.0302 397.994 35.2622 415.511C21.8552 415.578 4.32822 422.774 1.65822 444.133C1.03422 449.13 2.68922 453.953 6.32122 457.714C11.4162 462.99 23.1022 470.039 65.5852 470.33C66.4952 470.336 67.4012 470.339 68.3032 470.339C89.2572 470.339 107.546 468.724 108.346 468.653C109.391 468.559 110.369 468.272 111.263 467.843C120.006 475.676 131.393 480.594 143.043 480.594H389.043C411.158 480.594 432.336 462.886 436.251 441.12L474.567 228.077C475.832 221.045 475.236 214.174 472.863 207.962C476.852 198.323 479.068 187.768 479.068 176.702ZM214.291 120.595C242.708 114.762 252.374 130.428 259.267 142.031C261.04 145.017 263.783 147.097 267.046 147.097C268.193 147.097 269.359 146.864 270.477 146.37C274.771 144.472 276.713 139.453 274.816 135.16C268.123 120.012 256.729 112.158 248.451 108.251C258.866 90.061 278.112 78.707 299.577 78.707C323.604 78.707 345.032 93.076 354.165 115.313C355.082 117.546 356.905 119.284 359.18 120.092C361.452 120.9 363.964 120.705 366.086 119.551C375.53 114.418 386.245 111.705 397.072 111.705C432.912 111.705 462.069 140.862 462.069 176.702C462.069 212.541 432.912 241.699 397.072 241.699C368.776 241.699 343.921 223.616 335.223 196.702C334.481 194.404 332.796 192.531 330.589 191.549C329.489 191.06 328.313 190.816 327.135 190.816C325.95 190.816 324.765 191.064 323.659 191.559C316.043 194.971 307.939 196.702 299.576 196.702C296.482 196.702 293.343 196.452 290.245 195.96C286.301 195.334 282.459 197.534 281 201.248C272.065 223.999 250.508 238.699 226.08 238.699C205.843 238.699 187.243 228.489 176.326 211.386C175.025 209.35 172.921 207.963 170.536 207.572C168.147 207.182 165.713 207.824 163.832 209.338C154.596 216.771 143.444 220.7 131.584 220.7C103.189 220.7 80.0872 197.598 80.0872 169.203C80.0872 140.808 103.189 117.706 131.584 117.706C144.897 117.706 157.434 122.782 166.944 131.805C163.095 136.797 158.683 143.966 155.906 153.131C154.545 157.624 157.083 162.369 161.576 163.731C162.397 163.98 163.227 164.099 164.044 164.099C167.692 164.099 171.064 161.732 172.176 158.061C172.176 158.06 180.808 127.468 214.291 120.595ZM63.5522 453.311C27.1702 452.842 19.6972 447.075 18.5682 445.925C20.5652 431.605 34.8012 432.339 37.5962 432.631C40.2672 432.946 42.9352 431.975 44.7792 430.015C64.1452 409.439 90.8332 420.881 92.0932 421.439C92.1642 421.471 92.2372 421.494 92.3092 421.523L95.8332 441.121C96.5292 444.991 97.7802 448.729 99.4772 452.267C91.3962 452.795 77.6802 453.492 63.5522 453.311ZM419.516 438.111C417.032 451.925 403.076 463.595 389.04 463.595H143.04C129.005 463.595 115.049 451.925 112.564 438.111L74.2492 225.07C73.2602 219.574 74.2862 214.449 76.9632 210.478C89.4812 227.001 109.304 237.699 131.584 237.699C144.148 237.699 156.507 234.196 167.178 227.711C181.542 245.378 202.982 255.699 226.08 255.699C255.327 255.699 281.379 239.342 294.149 213.506C303.776 214.199 313.234 213.076 322.237 210.252C335.323 239.56 364.377 258.699 397.071 258.699C420.373 258.699 441.418 248.913 456.361 233.254L419.516 438.111Z" fill="#002B49"/>
<path d="M167.582 87.707C187.983 87.707 204.581 71.109 204.581 50.708C204.581 30.307 187.983 13.709 167.582 13.709C147.181 13.709 130.583 30.307 130.583 50.708C130.583 71.11 147.18 87.707 167.582 87.707ZM167.582 30.709C178.609 30.709 187.581 39.681 187.581 50.708C187.581 61.735 178.609 70.707 167.582 70.707C156.555 70.707 147.583 61.735 147.583 50.708C147.583 39.681 156.555 30.709 167.582 30.709Z" fill="#002B49"/>
<path d="M43.0893 60.708C56.8733 60.708 68.0883 49.494 68.0883 35.709C68.0883 21.924 56.8733 10.71 43.0893 10.71C29.3053 10.71 18.0903 21.924 18.0903 35.709C18.0903 49.494 29.3053 60.708 43.0893 60.708ZM43.0893 27.71C47.5003 27.71 51.0883 31.298 51.0883 35.709C51.0883 40.12 47.5003 43.708 43.0893 43.708C38.6783 43.708 35.0903 40.12 35.0903 35.709C35.0903 31.298 38.6783 27.71 43.0893 27.71Z" fill="#002B49"/>
<path d="M414.983 71.418C434.673 71.418 450.692 55.399 450.692 35.709C450.692 16.019 434.674 0 414.983 0C395.292 0 379.274 16.019 379.274 35.709C379.274 55.399 395.293 71.418 414.983 71.418ZM414.983 17C425.299 17 433.692 25.393 433.692 35.709C433.692 46.025 425.299 54.418 414.983 54.418C404.667 54.418 396.274 46.025 396.274 35.709C396.274 25.393 404.667 17 414.983 17Z" fill="#002B49"/>
<path d="M44.5884 350.194C59.1994 350.194 71.0874 338.307 71.0874 323.695C71.0874 309.083 59.1994 297.196 44.5884 297.196C29.9774 297.196 18.0894 309.083 18.0894 323.695C18.0894 338.307 29.9764 350.194 44.5884 350.194ZM44.5884 314.196C49.8254 314.196 54.0874 318.457 54.0874 323.695C54.0874 328.933 49.8254 333.194 44.5884 333.194C39.3514 333.194 35.0894 328.933 35.0894 323.695C35.0894 318.457 39.3504 314.196 44.5884 314.196Z" fill="#002B49"/>
</g>
<defs>
<clipPath id="clip0">
<rect width="480.595" height="480.595" fill="white"/>
</clipPath>
</defs>
</svg>
