<svg width="512" height="513" viewBox="0 0 512 513" fill="none" xmlns="http://www.w3.org/2000/svg">
<g clip-path="url(#clip0)">
<path d="M187.041 348.895C260.166 348.895 319.657 293.864 319.657 226.222C319.657 158.58 260.165 103.549 187.041 103.549C113.916 103.549 54.4253 158.58 54.4253 226.222C54.4253 293.864 113.916 348.895 187.041 348.895V348.895ZM187.041 118.564C251.887 118.564 304.643 166.859 304.643 226.222C304.643 285.585 251.886 333.88 187.041 333.88C122.195 333.88 69.44 285.585 69.44 226.222C69.44 166.859 122.195 118.564 187.041 118.564V118.564Z" fill="#002B49"/>
<path d="M227.651 207.187C227.651 219.382 237.573 229.304 249.769 229.304C261.964 229.304 271.886 219.382 271.886 207.187C271.886 194.992 261.964 185.071 249.769 185.071C237.573 185.071 227.651 194.992 227.651 207.187ZM249.768 200.085C253.684 200.085 256.87 203.271 256.87 207.187C256.87 211.103 253.684 214.289 249.768 214.289C245.851 214.289 242.665 211.103 242.665 207.187C242.665 203.271 245.852 200.085 249.768 200.085V200.085Z" fill="#002B49"/>
<path d="M213.959 192.676C226.154 192.676 236.075 182.754 236.075 170.559C236.075 158.365 226.154 148.443 213.959 148.443C201.764 148.443 191.842 158.365 191.842 170.559C191.842 182.754 201.764 192.676 213.959 192.676ZM213.959 163.457C217.875 163.457 221.061 166.643 221.061 170.558C221.061 174.474 217.875 177.66 213.959 177.66C210.043 177.66 206.857 174.474 206.857 170.558C206.857 166.643 210.043 163.457 213.959 163.457Z" fill="#002B49"/>
<path d="M124.311 229.304C136.507 229.304 146.429 219.382 146.429 207.187C146.429 194.992 136.507 185.071 124.311 185.071C112.117 185.071 102.195 194.992 102.195 207.187C102.195 219.382 112.117 229.304 124.311 229.304ZM124.311 200.085C128.228 200.085 131.414 203.271 131.414 207.187C131.414 211.103 128.228 214.289 124.311 214.289C120.396 214.289 117.209 211.103 117.209 207.187C117.209 203.271 120.396 200.085 124.311 200.085Z" fill="#002B49"/>
<path d="M160.121 192.676C172.315 192.676 182.237 182.754 182.237 170.559C182.237 158.365 172.315 148.443 160.121 148.443C147.926 148.443 138.004 158.365 138.004 170.559C138.004 182.754 147.926 192.676 160.121 192.676ZM160.121 163.457C164.036 163.457 167.222 166.643 167.222 170.558C167.222 174.474 164.036 177.66 160.121 177.66C156.205 177.66 153.019 174.474 153.019 170.558C153.019 166.643 156.205 163.457 160.121 163.457Z" fill="#002B49"/>
<path d="M149.126 222.671C148.083 227.579 145.295 232.068 141.064 235.652C131.56 243.702 126.594 255.461 127.436 267.915C128.75 287.312 144.382 302.798 163.798 303.934C170.201 304.306 176.628 303.096 182.39 300.426C185.301 299.078 188.777 299.078 191.688 300.426C196.767 302.78 202.364 304 208.003 304C208.762 304 209.523 303.978 210.281 303.934C229.697 302.797 245.329 287.311 246.642 267.914C247.485 255.46 242.518 243.701 233.016 235.652C228.784 232.068 225.997 227.579 224.955 222.672C223.144 214.153 218.63 206.665 211.901 201.016C197.726 189.118 176.351 189.118 162.177 201.016C155.449 206.666 150.936 214.154 149.126 222.671V222.671ZM171.832 212.515C180.501 205.237 193.577 205.237 202.246 212.515C206.387 215.99 209.159 220.581 210.266 225.792C212.007 233.982 216.516 241.354 223.309 247.108C229.134 252.042 232.178 259.256 231.66 266.9C230.856 278.771 221.288 288.248 209.402 288.944C205.413 289.177 201.572 288.458 197.998 286.802C194.516 285.188 190.777 284.383 187.039 284.383C183.3 284.383 179.56 285.189 176.078 286.802C172.505 288.458 168.667 289.179 164.675 288.944C152.789 288.248 143.221 278.771 142.417 266.901C141.9 259.256 144.944 252.042 150.768 247.108C157.561 241.355 162.071 233.983 163.812 225.792C164.92 220.582 167.693 215.991 171.832 212.515V212.515Z" fill="#002B49"/>
<path d="M482.425 402.077C498.37 381.734 507.144 356.426 507.144 330.493C507.144 266.418 455.015 214.289 390.941 214.289C378.962 214.289 367.259 216.089 356.016 219.636C355.207 182.519 353.282 145.452 350.23 108.583C349.139 95.4861 351.997 82.7097 358.495 71.6328C367.327 56.5691 375.236 35.992 362.751 23.5068C357.4 18.1596 343.682 10.408 286.574 4.85262C250.927 1.38523 211.784 0.150024 187.038 0.150024C162.292 0.150024 123.148 1.38523 87.5006 4.85362C30.3928 10.409 16.6754 18.1606 11.3222 23.5098C-1.16101 35.992 6.74771 56.5691 15.5803 71.6358C22.0777 82.7107 24.9355 95.4871 23.8434 108.581C23.42 113.644 23.0006 119.034 22.5261 125.546C22.2238 129.682 25.3319 133.279 29.4669 133.58C33.6029 133.884 37.1995 130.775 37.5007 126.64C37.9722 120.182 38.3866 114.841 38.806 109.831C40.1563 93.6333 36.6029 77.7979 28.532 64.0394C28.1216 63.3387 27.7372 62.6531 27.3548 61.9684C50.083 52.398 124.306 46.157 187.039 46.157C210.916 46.157 248.806 47.3341 283.537 50.6363C321.892 54.2839 339.049 58.8173 346.699 62.0064C346.323 62.6781 345.947 63.3507 345.544 64.0384C337.472 77.7979 333.917 93.6323 335.267 109.827C343.05 203.857 343.46 299.191 336.529 393.316C320.421 393.312 304.31 393.439 288.285 393.701C286.228 368.162 264.787 348.011 238.727 348.011C211.312 348.011 189.009 370.315 189.009 397.729C189.009 409.707 193.297 421.128 200.979 430.081C199.058 432.32 197.349 434.713 195.866 437.232C150.961 437.561 105.469 435.369 60.5863 430.691C48.8518 429.475 39.6378 420.025 38.6769 408.217C31.8322 324.688 30.7822 239.955 35.5558 156.371C35.7921 152.232 32.628 148.684 28.4889 148.447C24.3509 148.213 20.8024 151.375 20.5652 155.514C15.7515 239.79 16.8105 325.223 23.7113 409.437C25.2568 428.444 40.1143 443.663 59.0338 445.624C101.495 450.049 144.491 452.286 187.055 452.285C188.059 452.285 189.061 452.271 190.065 452.268C189.375 455.58 189.008 458.98 189.008 462.43C189.008 489.845 211.311 512.149 238.726 512.149C264.786 512.149 286.227 491.998 288.284 466.458C319.859 466.977 351.761 466.977 383.328 466.458C385.385 491.997 406.827 512.149 432.887 512.149C440.887 512.149 448.848 510.2 455.91 506.512C459.586 504.593 461.009 500.057 459.09 496.382C457.17 492.706 452.634 491.282 448.961 493.203C443.965 495.811 438.556 497.134 432.887 497.134C413.751 497.134 398.182 481.566 398.182 462.43C398.182 461.562 398.228 460.615 398.327 459.45C398.506 457.332 397.779 455.236 396.325 453.685C394.872 452.133 392.83 451.271 390.703 451.312C354.281 452.007 317.341 452.007 280.911 451.312C278.796 451.272 276.743 452.133 275.289 453.685C273.836 455.236 273.108 457.332 273.287 459.45C273.385 460.607 273.431 461.555 273.431 462.43C273.431 481.566 257.863 497.134 238.727 497.134C219.592 497.134 204.023 481.566 204.023 462.43C204.023 452.153 208.552 442.457 216.449 435.828C218.147 434.402 219.129 432.297 219.129 430.079C219.129 427.861 218.148 425.756 216.449 424.329C208.552 417.701 204.023 408.005 204.023 397.727C204.023 378.592 219.592 363.023 238.727 363.023C257.863 363.023 273.431 378.592 273.431 397.727C273.431 398.603 273.385 399.551 273.287 400.708C273.108 402.826 273.836 404.921 275.289 406.473C276.743 408.024 278.794 408.892 280.911 408.846C317.34 408.151 354.28 408.151 390.703 408.846C392.832 408.892 394.872 408.024 396.325 406.473C397.779 404.921 398.506 402.826 398.327 400.708C398.228 399.543 398.182 398.596 398.182 397.727C398.182 378.592 413.751 363.023 432.887 363.023C452.028 363.023 467.601 378.592 467.601 397.727C467.601 408.007 463.07 417.702 455.169 424.326C453.468 425.753 452.485 427.859 452.485 430.079C452.485 432.299 453.467 434.405 455.169 435.832C463.07 442.456 467.601 452.151 467.601 462.43C467.601 466.813 466.796 471.082 465.208 475.118C463.69 478.977 465.589 483.334 469.447 484.852C473.305 486.37 477.664 484.472 479.181 480.614C481.459 474.821 482.615 468.704 482.615 462.431C482.615 450.452 478.325 439.031 470.639 430.08C477.39 422.22 481.519 412.453 482.425 402.077V402.077ZM187.04 31.1413C185.681 31.1413 61.7734 31.3575 21.2879 48.3851C19.2199 41.7166 19.368 36.6987 21.9385 34.1282C23.9695 32.0982 34.8051 25.0654 88.955 19.7972C124.068 16.3819 162.645 15.1647 187.038 15.1647C211.431 15.1647 250.007 16.3819 285.121 19.7972C339.27 25.0654 350.106 32.0982 352.135 34.1262C354.707 36.6987 354.857 41.7156 352.789 48.3841C312.302 31.3585 188.399 31.1413 187.04 31.1413ZM432.889 348.01C406.829 348.01 385.387 368.16 383.33 393.7C372.777 393.527 362.183 393.434 351.579 393.376C355.41 340.942 356.992 288.14 356.293 235.393C367.359 231.351 378.99 229.304 390.941 229.304C446.736 229.304 492.13 274.697 492.13 330.493C492.13 347.826 487.632 364.841 479.267 379.824C472.063 361.233 453.996 348.01 432.889 348.01Z" fill="#002B49"/>
</g>
<defs>
<clipPath id="clip0">
<rect width="512" height="512" fill="white" transform="translate(0 0.150024)"/>
</clipPath>
</defs>
</svg>
