<svg width="512" height="512" viewBox="0 0 512 512" fill="none" xmlns="http://www.w3.org/2000/svg">
<g clip-path="url(#clip0)">
<path d="M469.926 341.346C478.169 341.338 484.848 334.658 484.857 326.415V288.021C484.848 279.779 478.169 273.099 469.926 273.091H382.473V247.495H391.005C405.134 247.479 416.585 236.028 416.601 221.899V170.707C416.585 156.578 405.134 145.127 391.005 145.111H260.843L270.94 124.741C273.032 120.521 271.308 115.405 267.089 113.311L244.179 101.939L263.145 63.771L278.431 71.3591C291.094 77.6439 306.454 72.4746 312.739 59.8132C319.025 47.1518 313.855 31.7911 301.193 25.5052L255.34 2.74091C242.715 -3.61753 227.325 1.46325 220.967 14.0884C214.608 26.7135 219.689 42.103 232.314 48.4615C232.403 48.5063 232.491 48.55 232.58 48.5937L247.86 56.1797L228.898 94.3463L205.95 82.9593C201.729 80.8647 196.61 82.5882 194.515 86.8094C194.514 86.8104 194.514 86.8115 194.513 86.8126L78.8895 320.123C74.3974 329.203 76.8994 340.19 84.881 346.43L73.3096 369.743C68.4752 379.457 70.3095 391.166 77.8827 398.937L28.0316 499.679C25.9402 503.902 27.669 509.02 31.8923 511.112C36.1156 513.203 41.2337 511.474 43.3251 507.251L93.1549 406.537C94.1702 406.661 95.1908 406.725 96.2136 406.726C105.942 406.717 114.828 401.207 119.163 392.498L130.736 369.182C132.514 369.661 134.346 369.905 136.187 369.908C144.294 369.898 151.699 365.306 155.31 358.047L215.919 235.751C220.628 243.067 228.73 247.49 237.43 247.495H245.962V273.944C226.112 278.025 211.86 295.486 211.834 315.75V469.325C211.861 492.875 230.945 511.958 254.494 511.985H373.941C377.188 511.986 380.424 511.617 383.588 510.886C385.993 511.615 388.493 511.986 391.005 511.985H459.261C473.391 511.969 484.841 500.519 484.857 486.389V384.006C484.843 373.164 478.011 363.504 467.793 359.878V341.346H469.926ZM240.166 33.3098C235.946 31.2141 234.222 26.0939 236.318 21.8738C238.413 17.6537 243.534 15.9302 247.754 18.0259L293.606 40.787C297.857 42.8197 299.656 47.9133 297.623 52.1643C295.59 56.4154 290.497 58.2146 286.246 56.1818C286.17 56.1456 286.094 56.1082 286.02 56.0698L240.166 33.3098ZM236.585 117.216L251.864 124.8L239.448 149.855L229.516 169.897L214.188 162.288L236.585 117.216ZM206.011 102.04L221.3 109.629L198.904 154.701L183.662 147.138L206.011 102.04ZM103.878 384.911C101.753 389.117 96.621 390.803 92.4158 388.677C88.2533 386.573 86.5512 381.517 88.5946 377.324L99.9751 354.395L115.259 361.982L103.878 384.911ZM198.751 231.976L175.899 220.63L168.312 235.915L191.173 247.262L183.601 262.551L160.729 251.199L153.143 266.484L176.024 277.841L168.446 293.13L145.552 281.768L137.965 297.053L160.864 308.419L153.292 323.71L130.378 312.338L122.792 327.623L145.712 339L140.028 350.467C138.979 352.575 136.42 353.435 134.311 352.386L96.0984 333.42C93.99 332.367 93.1314 329.808 94.1787 327.697L160.476 193.921L206.33 216.681L198.751 231.976ZM221.027 187.025L213.905 201.397L168.108 178.663L175.195 164.217L176.082 162.425L221.929 185.182L221.027 187.025ZM237.43 230.431C232.72 230.426 228.903 226.609 228.898 221.899V209.724L236.364 194.501L252.387 162.175H391.005C395.715 162.181 399.532 165.998 399.537 170.707V179.239H348.345C343.634 179.239 339.813 183.059 339.813 187.771C339.813 192.483 343.634 196.303 348.345 196.303H399.537V221.899C399.532 226.609 395.715 230.426 391.005 230.431H237.43ZM228.898 315.75C228.914 301.62 240.364 290.17 254.494 290.154C259.206 290.154 263.026 286.334 263.026 281.623V247.495H365.409V324.282H228.898V315.75ZM254.494 494.921C240.364 494.905 228.914 483.455 228.898 469.325V460.793H365.409V486.389C365.408 489.297 365.904 492.181 366.877 494.921H254.494ZM365.409 384.006V443.73H228.898V341.346H382.473V359.878C372.255 363.504 365.423 373.164 365.409 384.006ZM467.793 486.389C467.787 491.099 463.97 494.916 459.261 494.921H391.005C386.296 494.916 382.479 491.099 382.473 486.389V477.857H467.793V486.389ZM467.793 426.666H450.729C446.017 426.666 442.197 430.486 442.197 435.198C442.197 439.909 446.017 443.73 450.729 443.73H467.793V460.793H382.473V409.602H467.793V426.666ZM467.793 392.538H382.473V384.006C382.479 379.296 386.296 375.479 391.005 375.474H459.261C463.97 375.479 467.787 379.296 467.793 384.006V392.538ZM399.537 358.41V341.346H450.729V358.41H399.537ZM382.473 324.282V290.154H467.793V324.282H382.473Z" fill="#002B49"/>
<path d="M327.016 401.07H301.42C294.352 401.07 288.622 406.8 288.622 413.868C288.622 420.935 294.352 426.666 301.42 426.666H327.016C334.083 426.666 339.814 420.935 339.814 413.868C339.814 406.8 334.083 401.07 327.016 401.07Z" fill="#002B49"/>
<path d="M314.218 384.006C318.93 384.006 322.75 380.186 322.75 375.474V366.942C322.75 362.23 318.93 358.41 314.218 358.41C309.506 358.41 305.686 362.23 305.686 366.942V375.474C305.686 380.186 309.505 384.006 314.218 384.006Z" fill="#002B49"/>
<path d="M297.154 384.006V375.474C297.154 370.762 293.334 366.942 288.622 366.942C283.91 366.942 280.09 370.762 280.09 375.474V384.006C280.09 388.718 283.91 392.538 288.622 392.538C293.334 392.538 297.154 388.718 297.154 384.006Z" fill="#002B49"/>
<path d="M339.814 366.942C335.102 366.942 331.282 370.762 331.282 375.474V384.006C331.282 388.718 335.102 392.538 339.814 392.538C344.525 392.538 348.346 388.718 348.346 384.006V375.474C348.346 370.762 344.525 366.942 339.814 366.942Z" fill="#002B49"/>
<path d="M408.069 443.729H416.601C421.313 443.729 425.133 439.909 425.133 435.198C425.133 430.486 421.313 426.666 416.601 426.666H408.069C403.357 426.666 399.537 430.486 399.537 435.198C399.537 439.909 403.356 443.729 408.069 443.729Z" fill="#002B49"/>
<path d="M297.154 196.303H314.218C318.93 196.303 322.75 192.483 322.75 187.771C322.75 183.059 318.93 179.239 314.218 179.239H297.154C292.442 179.239 288.622 183.059 288.622 187.771C288.622 192.483 292.441 196.303 297.154 196.303Z" fill="#002B49"/>
</g>
<defs>
<clipPath id="clip0">
<rect width="512" height="512" fill="white"/>
</clipPath>
</defs>
</svg>
