<svg width="360" height="95" viewBox="0 0 360 95" fill="none" xmlns="http://www.w3.org/2000/svg">
<g clip-path="url(#clip0)">
<path d="M71.084 62.1279C73.4916 62.1279 75.4434 60.1762 75.4434 57.7686C75.4434 55.3609 73.4916 53.4092 71.084 53.4092C68.6764 53.4092 66.7246 55.3609 66.7246 57.7686C66.7246 60.1762 68.6764 62.1279 71.084 62.1279Z" fill="#47D4AC"/>
<path d="M128.358 7.7607C121.233 0.635847 104.651 23.5634 97.421 28.5618C92.1612 26.8232 79.0669 26.8239 73.8093 28.5618C66.6154 23.5883 49.9715 0.661095 42.8728 7.7607C41.0025 9.63087 39.1152 13.2383 39.1152 17.0812C39.1152 26.4245 40.1617 44.0183 47.4716 49.8663C52.2132 53.6597 55.9339 55.2219 58.2569 55.8657C59.0272 61.9281 61.4242 66.7501 63.2166 68.5426C64.3462 69.6724 67.0201 73.6579 68.327 77.5785C69.8877 82.2602 72.0592 86.8312 79.8029 86.8312C82.3504 86.8312 84.2497 86.0029 85.6154 84.7863C86.9812 86.0029 88.8804 86.8312 91.4279 86.8312C99.1714 86.8312 101.343 82.2602 102.904 77.5785C104.211 73.6579 106.885 69.6724 108.014 68.5426C109.807 66.7503 112.204 61.9281 112.974 55.8657C115.297 55.2219 119.017 53.6597 123.759 49.8663C131.063 44.0227 132.115 26.4497 132.115 17.0812C132.115 13.2383 130.228 9.63087 128.358 7.7607ZM82.7697 72.3966C83.1309 71.8266 84.2747 70.8469 85.6152 70.8469C86.9557 70.8469 88.0995 71.8268 88.4608 72.3966C88.0959 73.3982 86.6399 75.2062 85.6152 75.2062C84.5906 75.2062 83.1346 73.3982 82.7697 72.3966ZM120.128 45.3274C117.155 47.7055 114.762 48.9917 113.074 49.6881C112.126 42.3756 107.014 35.9081 106.775 35.6095C105.772 34.3563 103.944 34.1527 102.69 35.1556C101.437 36.1584 101.234 37.9872 102.236 39.2405C103.676 41.04 107.412 46.8321 107.412 51.9562C107.412 58.6817 104.647 63.6897 103.904 64.4326C102.243 66.0933 99.0243 70.8356 97.3895 75.7404C96.0599 79.7293 95.3041 81.0189 91.4279 81.0189C90.0678 81.0189 89.4809 80.5626 89.1374 80.0558C92.278 78.2947 94.3342 74.5303 94.3342 72.3002C94.3342 68.9896 90.3531 65.0345 85.6154 65.0345C80.8726 65.0345 76.8967 68.9925 76.8967 72.3002C76.8967 74.5303 78.9528 78.2947 82.0934 80.0558C81.7501 80.5626 81.163 81.0189 79.8029 81.0189C75.9267 81.0189 75.1709 79.7293 73.8413 75.7404C72.2065 70.8356 68.9875 66.0933 67.3267 64.4326C66.5837 63.6897 63.8184 58.6817 63.8184 51.9562C63.8184 45.8587 68.887 39.376 68.9955 39.2387C69.9965 37.9853 69.7929 36.1577 68.5401 35.1556C67.2868 34.1527 65.4578 34.356 64.4552 35.6095C64.2163 35.9081 59.1046 42.3756 58.1566 49.6881C56.4686 48.9917 54.0752 47.7055 51.1026 45.3274C47.3515 42.3265 44.9277 31.2392 44.9277 17.0812C44.9277 15.3228 45.7558 13.3661 46.6504 12.2452C50.2086 13.334 58.9969 22.4171 61.6659 25.1027C68.5308 32.0104 72.0748 35.82 75.2901 34.2118C76.7023 33.5059 81.749 33.0671 85.6154 33.0654C89.4818 33.0671 94.5285 33.5057 95.9408 34.2118C99.0381 35.7608 102.228 32.4854 109.565 25.1027C112.224 22.4265 121.025 13.3331 124.58 12.2452C125.475 13.3661 126.303 15.3228 126.303 17.0812C126.303 31.2392 123.879 42.3265 120.128 45.3274Z" fill="#47D4AC"/>
<path d="M100.146 62.1279C102.554 62.1279 104.506 60.1762 104.506 57.7686C104.506 55.3609 102.554 53.4092 100.146 53.4092C97.7389 53.4092 95.7871 55.3609 95.7871 57.7686C95.7871 60.1762 97.7389 62.1279 100.146 62.1279Z" fill="#47D4AC"/>
</g>
<g filter="url(#filter0_d)">
<path d="M4.11523 7.02846H22.0105V86.1155H4.11523V7.02846Z" fill="#002B49"/>
<path d="M172.033 6.11548C183.887 6.11548 192.987 8.20773 199.335 12.3922C205.682 16.5006 208.856 23.2719 208.856 32.7061C208.856 42.2163 205.644 49.1017 199.22 53.3623C192.796 57.5468 183.619 59.639 171.689 59.639H166.068V86.1155H148.173V8.16969C152.073 7.40887 156.203 6.8763 160.562 6.57197C164.921 6.26764 168.745 6.11548 172.033 6.11548ZM173.18 21.2938C171.88 21.2938 170.58 21.3318 169.28 21.4079C168.056 21.484 166.986 21.5601 166.068 21.6362V44.4607H171.689C177.884 44.4607 182.549 43.6238 185.684 41.95C188.82 40.2762 190.387 37.1568 190.387 32.5919C190.387 30.3856 189.967 28.5596 189.125 27.1141C188.361 25.6685 187.214 24.5273 185.684 23.6904C184.231 22.7774 182.434 22.1687 180.293 21.8644C178.151 21.484 175.78 21.2938 173.18 21.2938Z" fill="#002B49"/>
<path d="M224.291 86.1155V7.02846H277.977V21.9785H242.186V37.4992H273.962V52.1069H242.186V71.1654H280.615V86.1155H224.291Z" fill="#002B49"/>
<path d="M355.115 7.02846V22.2068H331.14V86.1155H313.245V22.2068H289.27V7.02846H355.115Z" fill="#002B49"/>
</g>
<defs>
<filter id="filter0_d" x="0.115234" y="6.11548" width="359" height="88" filterUnits="userSpaceOnUse" color-interpolation-filters="sRGB">
<feFlood flood-opacity="0" result="BackgroundImageFix"/>
<feColorMatrix in="SourceAlpha" type="matrix" values="0 0 0 0 0 0 0 0 0 0 0 0 0 0 0 0 0 0 127 0"/>
<feOffset dy="4"/>
<feGaussianBlur stdDeviation="2"/>
<feColorMatrix type="matrix" values="0 0 0 0 0 0 0 0 0 0 0 0 0 0 0 0 0 0 0.25 0"/>
<feBlend mode="normal" in2="BackgroundImageFix" result="effect1_dropShadow"/>
<feBlend mode="normal" in="SourceGraphic" in2="effect1_dropShadow" result="shape"/>
</filter>
<clipPath id="clip0">
<rect width="93" height="93" fill="white" transform="translate(39.1152 0.115479)"/>
</clipPath>
</defs>
</svg>
